<svg width="951.23547" height="632.16225" xmlns="http://www.w3.org/2000/svg" data-name="Layer 1">

 <g>
  <title>Layer 1</title>
  <path id="svg_1" fill="#f0f0f0" d="m341.2085,363.81506c32.59906,-57.34521 94.78223,-101.37695 160.6084,-97.13516a303.91885,303.91885 0 0 0 -79.9314,192.74417c-1.08081,27.64349 0.59534,58.50232 -17.75916,79.20148c-11.42035,12.87976 -28.87665,19.11743 -46.04001,20.42603c-17.16418,1.30817 -34.32437,-1.79291 -51.25919,-4.8808l-4.108,1.26099c-1.56393,-65.94489 5.89029,-134.27148 38.48935,-191.6167z"/>
  <path id="svg_2" fill="#fff" d="m501.91486,268.06052c-48.67761,23.4335 -90.18414,62.56982 -115.66379,110.29965c-5.50864,10.31909 -10.19864,21.26636 -12.24448,32.84119c-2.04678,11.58002 -0.61713,22.60315 3.33807,33.60162c3.61591,10.05487 8.47891,19.92114 9.58765,30.67987c1.16864,11.34021 -3.00385,21.9436 -10.51468,30.35895c-9.1897,10.29645 -21.53098,16.67682 -33.81665,22.49695c-13.64084,6.46204 -27.9118,12.95795 -37.57339,25.01855c-1.17062,1.4613 -3.36963,-0.44061 -2.20078,-1.89966c16.80951,-20.98334 45.58316,-24.9278 65.53616,-41.83081c9.31042,-7.88727 16.30035,-18.62817 15.85922,-31.21356c-0.38577,-11.00537 -5.39188,-21.18384 -9.14102,-31.33295c-3.93665,-10.65674 -5.89981,-21.37183 -4.48807,-32.73352c1.44412,-11.62244 5.71597,-22.77612 10.93668,-33.1908c11.77386,-23.48755 27.88684,-45.0509 46.34503,-63.69116a264.37531,264.37531 0 0 1 73.09857,-52.1554c1.68152,-0.80948 2.612,1.94687 0.94153,2.75107l-0.00006,0z"/>
  <path id="svg_3" fill="#fff" d="m393.71466,362.40884a38.97361,38.97361 0 0 1 -11.76083,-49.07724c0.85126,-1.66562 3.47955,-0.42108 2.62717,1.24677a36.0887,36.0887 0 0 0 11.03333,45.6297c1.51532,1.09702 -0.39301,3.2915 -1.89966,2.20078z"/>
  <path id="svg_4" fill="#fff" d="m374.83981,439.94623a75.11847,75.11847 0 0 0 47.56064,-27.10919c1.17578,-1.45709 3.37512,0.44434 2.20074,1.89966a78.13447,78.13447 0 0 1 -49.54846,28.10901c-1.85547,0.26563 -2.05832,-2.63525 -0.21292,-2.89941l0,-0.00006z"/>
  <path id="svg_5" fill="#fff" d="m450.52478,299.61588a22.06094,22.06094 0 0 0 19.71759,7.02966c1.8512,-0.289 2.05206,2.61227 0.21295,2.89944a24.7211,24.7211 0 0 1 -21.8302,-7.72833a1.50247,1.50247 0 0 1 -0.15057,-2.05023a1.461,1.461 0 0 1 2.05023,-0.15054z"/>
  <path id="svg_6" fill="#f0f0f0" d="m632.79102,447.58301c-1.15076,0.21338 -2.30157,0.4267 -3.46289,0.66229a290.53033,290.53033 0 0 0 -45.42468,12.55652c-1.14911,0.40002 -2.30762,0.82275 -3.44281,1.25494a306.28394,306.28394 0 0 0 -96.32922,58.62177a297.44009,297.44009 0 0 0 -31.20007,32.69501c-13.19611,16.12274 -26.22119,34.65381 -43.46521,45.16614a51.02756,51.02756 0 0 1 -5.552,3.00983l-99.33786,-41.20404c-0.17874,-0.20691 -0.36798,-0.39172 -0.54785,-0.59918l-4.04147,-1.46375c0.45078,-0.63654 0.93201,-1.28693 1.38278,-1.92346c0.26001,-0.3703 0.54199,-0.73138 0.802,-1.10168c0.18033,-0.24402 0.36179,-0.48761 0.51056,-0.71802c0.05972,-0.08142 0.12054,-0.16241 0.1709,-0.22125c0.14877,-0.23047 0.31143,-0.42877 0.45078,-0.63654q4.01978,-5.4649 8.13031,-10.89233c0.0094,-0.02264 0.0094,-0.02264 0.04099,-0.03619c20.95062,-27.51624 44.38245,-53.52515 71.017,-75.15082c0.80154,-0.65033 1.61142,-1.32385 2.45834,-1.95538a283.82352,283.82352 0 0 1 38.36429,-25.95135a250.912,250.912 0 0 1 22.75775,-11.25348a208.65167,208.65167 0 0 1 63.21411,-16.12213c43.43146,-4.03302 87.66931,5.86902 120.9798,33.15356c0.85156,0.69861 1.68225,1.38831 2.52448,2.10956z"/>
  <path id="svg_7" fill="#fff" d="m632.04474,448.75122c-52.97498,-10.59698 -109.67841,-4.33862 -158.75909,18.43048c-10.61115,4.92261 -20.94684,10.83972 -29.54919,18.84985c-8.6062,8.01367 -14.10138,17.67578 -17.56525,28.83875c-3.16663,10.20526 -5.224,21.0108 -10.81616,30.26855c-5.89453,9.75818 -15.60999,15.71228 -26.67358,17.90942c-13.53665,2.68829 -27.23196,0.35236 -40.54541,-2.39746c-14.78207,-3.0531 -30.08765,-6.45856 -45.06317,-2.64581c-1.81448,0.46198 -2.4252,-2.38055 -0.61346,-2.8418c26.05484,-6.63354 51.40384,7.54077 77.51202,6.05768c12.18256,-0.69196 24.23035,-5.05957 31.45538,-15.3739c6.31799,-9.01941 8.44904,-20.16034 11.56604,-30.52112c3.27289,-10.87891 8.15662,-20.61627 16.12433,-28.83795c8.15057,-8.4104 18.27673,-14.74402 28.71552,-19.91638c23.54187,-11.66479 49.38977,-19.18085 75.35034,-22.95093a264.37546,264.37546 0 0 1 89.7663,2.36725c1.82996,0.36603 0.91339,3.12708 -0.9046,2.76343l0,-0.00006z"/>
  <path id="svg_8" fill="#fff" d="m488.84875,458.93903a38.97358,38.97358 0 0 1 20.15753,-46.26624c1.6825,-0.81744 3.03174,1.75867 1.34698,2.57715a36.0887,36.0887 0 0 0 -18.66272,43.07562c0.54944,1.78821 -2.29553,2.39148 -2.8418,0.61346z"/>
  <path id="svg_9" fill="#fff" d="m427.09534,509.48438a75.11849,75.11849 0 0 0 54.29608,6.98956c1.8161,-0.45551 2.42737,2.38684 0.61346,2.8418a78.13454,78.13454 0 0 1 -56.48523,-7.38812c-1.64142,-0.90503 -0.05682,-3.34332 1.57568,-2.44324z"/>
  <path id="svg_10" fill="#fff" d="m572.01416,443.00598a22.06092,22.06092 0 0 0 11.51105,17.48413c1.6521,0.88379 0.06567,3.32129 -1.57562,2.44324a24.7211,24.7211 0 0 1 -12.77722,-19.3139a1.50248,1.50248 0 0 1 1.11414,-1.72766a1.461,1.461 0 0 1 1.72766,1.1142z"/>
  <path id="svg_11" fill="#3f3d56" d="m443.55914,515.56146c-13.91199,-67.26691 -31.302,-89.69385 -31.302,-89.69385l-6.64343,-5.15186l-7.98926,-6.20581l0.03857,-0.79785l-1.8949,-0.6441l-0.44513,-0.34576l-0.72943,-0.56006l-0.11731,0.12598l-0.24768,0.25647l-36.15234,-12.2887l-45.86536,-15.57935l-21.23859,-27.60583a36.7343,36.7343 0 0 0 -29.38672,-14.33386l-67.82916,0.50189a36.73449,36.73449 0 0 0 -24.70972,9.80127l-44.58307,41.35413l-69.46899,33.17786l-0.11725,-0.11725l-0.72949,0.52106l-10.73358,5.13232l0.44293,2.3056l-6.64343,4.79376s-17.39,20.86798 -31.30206,83.45898c-3.53907,15.92603 -5.28113,50.08978 -5.90992,92.18829a16.06908,16.06908 0 0 0 16.06245,16.30737l371.04755,0l0,-0.00006l46.31152,0a16.0717,16.0717 0 0 0 16.06262,-16.29071c-0.61414,-45.80969 -2.35553,-83.0387 -5.92682,-100.30994z"/>
  <circle fill="#9e616a" r="88.86282" cy="228.39206" cx="238.3229" data-name="ab6171fa-7d69-4734-b81c-8dff60f9761b" id="e096411a-cdc3-4e6d-bbd4-4630e1fee17e"/>
  <path id="svg_14" fill="#2f2e41" d="m215.59003,312.90372q-0.56946,-1.25375 -1.13574,-2.51617c0.14551,0.00464 0.28955,0.02557 0.435,0.02939l0.70074,2.48679z"/>
  <path id="svg_15" fill="#2f2e41" d="m146.98886,143.57025c4.49445,-3.5853 9.74734,-6.88419 15.49371,-6.69876c5.74615,0.18518 11.57324,5.37506 10.38275,10.99973a91.31784,91.31784 0 0 1 109.89526,-41.20776c14.28183,5.03873 28.28735,15.11919 31.56808,29.90414c0.84219,3.79532 1.02298,7.95688 3.39273,11.03885c2.98785,3.88574 8.70456,4.76474 13.4118,3.3978q0.07062,-0.02051 0.14099,-0.04153a4.1986,4.1986 0 0 1 5.07324,5.92694l-4.04102,7.5365a32.38317,32.38317 0 0 0 15.42801,-0.32809a4.195,4.195 0 0 1 4.45468,6.5282c-13.32471,18.29416 -35.58606,30.10754 -58.30325,29.96872c-16.1459,-0.09845 -32.45813,-5.66309 -48.17178,-1.9501a41.84383,41.84383 0 0 0 -28.14383,58.74017c-4.82733,-5.28006 -14.159,-4.03 -19.09698,1.147c-4.93774,5.177 -6.21613,12.90384 -5.71854,20.04086c0.76077,10.91577 5.0376,21.20142 9.5463,31.21219c-37.80124,-1.19 -73.55501,-27.707 -85.58977,-63.5719c-12.08525,-36.01508 0.58047,-78.95261 30.2776,-102.64294z"/>
  <polygon id="svg_16" opacity="0.2" points="87.464 495.253 112.388 630.86 127.343 632.162 87.464 495.253"/>
  <polygon id="svg_17" opacity="0.2" points="362.007 485.026 337.083 630.762 322.128 632.162 362.007 485.026"/>
  <path id="svg_18" fill="#6c63ff" d="m168.24707,97.93207c-4.77881,1.99547 -9.76532,-0.19144 -11.85657,-5.19962c-2.12323,-5.08476 -0.14017,-10.24648 4.71524,-12.27393c4.8559,-2.02765 9.7536,0.1646 11.91101,5.33138c2.12515,5.08928 0.1637,10.08217 -4.76968,12.14217zm-9.15421,-27.48201l-3.79971,1.58664a4.09911,4.09911 0 0 1 -5.20612,-1.90948l-0.1879,-0.36761c-4.08847,-7.37337 -4.55661,-16.33466 -1.384,-26.62093c2.939,-9.22731 4.1597,-15.71684 1.70477,-21.59601c-2.83835,-6.79741 -8.89929,-8.92671 -16.62839,-5.84218c-2.99768,1.25172 -3.95158,1.2318 -6.31064,3.57201a5.4161,5.4161 0 0 1 -3.92122,1.59343a5.2354,5.2354 0 0 1 -3.74713,-1.64299a5.34757,5.34757 0 0 1 -0.03683,-7.29733a41.53525,41.53525 0 0 1 14.04573,-9.64413c16.60648,-6.9343 24.96628,3.30321 28.79184,12.4648c3.74182,8.96107 1.63699,17.27545 -1.74503,28.0434c-2.83414,8.94753 -2.66907,15.57751 0.55035,22.16978a4.08088,4.08088 0 0 1 -2.12567,5.49059l-0.00006,0.00003z"/>
 </g>
</svg>