<?xml version="1.0" encoding="utf-8"?>
<!-- Uploaded to: SVG Repo, www.svgrepo.com, Generator: SVG Repo Mixer Tools -->
<svg fill="#000000" version="1.1" id="Layer_1" xmlns="http://www.w3.org/2000/svg" xmlns:xlink="http://www.w3.org/1999/xlink" 
	 width="800px" height="800px" viewBox="0 0 256 256" enable-background="new 0 0 256 256" xml:space="preserve">
<path d="M98.6,32.6c24,0,43.4,19.4,43.4,43.4s-19.4,43.6-43.4,43.6s-43.4-19.4-43.4-43.4S74.6,32.6,98.6,32.6z M221.8,215.6h-54.4
	l25.4-43.8c5.2-9.2,2-20.8-7-26s-20.6-2-25.8,7l-25.4,43.8l-37.8-64.8C93.2,125,86,121.6,77,121.6c-1.2,0-3.8,0.4-5.2,0.8
	c-1.2,0.2-3,0.8-4.4,1.2C31,135.6,2.2,193.8,2.2,254c1,0,87.4,0,109.4,0c-0.8-1.2-1.6-2.2-2.4-3.4L65.4,175c-1.4-2.6-0.4-6,2-7.4
	c2.6-1.4,6-0.4,7.4,2l43.4,75c3.2,5.6,9.2,9.4,16.2,9.4h87.4c10.6,0,19-8.6,19-19C241,224,232.2,215.6,221.8,215.6z M205.866,25.971
	c9.109-11.929,17.329-17.435,21.184-17.435c0.53,0,0.97,0.1,1.31,0.3c2.06,1.19,2.45,6.43,1.07,13.35c2.2,0.42,4.31,0.9,6.32,1.44
	c2.16-10.43,0.72-17.65-4.12-20.45c-4.92-2.84-11.8-0.51-19.9,6.74c-4.65,4.161-9.527,9.834-14.06,16.274
	c-4.522,0.261-8.99,0.755-13.227,1.475c-3.061-10.292-2.841-17.367-0.303-18.829c0.34-0.2,0.78-0.3,1.31-0.3
	c2.82,0,7.45,2.8,12.39,7.5c1.4-1.73,2.81-3.38,4.22-4.93c-8.55-8.07-16.06-10.89-21.18-7.93c-4.92,2.83-6.34,9.95-4.11,20.6
	c0.349,1.664,0.788,3.4,1.306,5.188c-12.435,3.002-21.576,8.214-21.576,15.432c0,5.95,6.28,11.08,17.68,14.44l0.48,0.14l0.14-0.47
	c0.52-1.71,1.11-3.45,1.75-5.18l0.18-0.5l-0.51-0.15c-7.89-2.31-13.18-5.64-13.18-8.28c0-2.987,6.244-6.807,17.056-9.302
	c1.479,4.036,3.295,8.223,5.375,12.394c-3.126,6.872-5.469,13.639-6.701,19.528c-2.23,10.64-0.81,17.76,4.11,20.59
	c1.34,0.78,2.85,1.17,4.49,1.17c4.09,0,9.08-2.47,14.55-7.17c-1.49-1.52-2.95-3.12-4.37-4.79c-4.07,3.44-7.73,5.44-10.1,5.44
	c-0.52,0-0.96-0.1-1.31-0.3c-3.177-1.838-2.733-12.454,3.251-27.178c9.507,16.411,24.707,33.998,35.739,33.998
	c1.64,0,3.15-0.39,4.49-1.17h0.01c10.17-5.86,3.89-28.63-6.39-47.78c-2.44-0.39-5.11-0.71-8.02-0.94l0.33,0.56
	c12.89,22.32,15.01,40.08,10.81,42.51c-0.35,0.2-0.79,0.3-1.31,0.3c-5.08,0-17.79-9.59-30.1-30.91c-0.78-1.351-1.518-2.685-2.22-4
	c1.255-2.554,2.656-5.193,4.22-7.9c1.416-2.452,2.836-4.742,4.25-6.887c1.324-0.039,2.671-0.063,4.049-0.063
	c25.77,0,42.22,7.05,42.22,11.9c0,2.49-4.72,5.59-11.89,7.88c0.79,2.06,1.51,4.11,2.14,6.13c10.51-3.36,16.28-8.3,16.28-14.01
	C254,32.529,229.315,26.082,205.866,25.971z M191.29,36.175c-0.741,1.284-1.459,2.581-2.154,3.883
	c-0.969-2.14-1.835-4.212-2.59-6.197c2.087-0.324,4.294-0.599,6.614-0.815C192.525,34.079,191.899,35.121,191.29,36.175z
	 M199.202,45.523c0,3.958,3.221,7.179,7.179,7.179s7.179-3.221,7.179-7.179s-3.221-7.179-7.179-7.179S199.202,41.564,199.202,45.523
	z"/>
</svg>